<svg xmlns="http://www.w3.org/2000/svg" version="1.1" xmlns:xlink="http://www.w3.org/1999/xlink" xmlns:svgjs="http://svgjs.dev/svgjs" width="2000" height="1281" viewBox="0 0 2000 1281"><g transform="matrix(1,0,0,1,-2.5355937726957336,-2.066129032258118)"><svg viewBox="0 0 387 248" data-background-color="#ffffff" preserveAspectRatio="xMidYMid meet" height="1281" width="2000" xmlns="http://www.w3.org/2000/svg" xmlns:xlink="http://www.w3.org/1999/xlink"><g id="tight-bounds" transform="matrix(1,0,0,1,0.49063739501661985,0.4000000000000057)"><svg viewBox="0 0 386.01872520996676 247.2" height="247.2" width="386.01872520996676"><g><svg viewBox="0 0 395.52 253.28445905524057" height="247.2" width="386.01872520996676"><g transform="matrix(1,0,0,1,0,181.29403393755123)"><svg viewBox="0 0 395.52 71.99042511768934" height="71.99042511768934" width="395.52"><g id="textblocktransform"><svg viewBox="0 0 395.52 71.99042511768934" height="71.99042511768934" width="395.52" id="textblock"><g><svg viewBox="0 0 395.52 38.82819534781171" height="38.82819534781171" width="395.52"><g transform="matrix(1,0,0,1,0,0)"><svg width="395.52" viewBox="3.98 -36.01 442.89 43.48" height="38.82819534781171" data-palette-color="#111111"><path d="M13.67-13.13L13.67 0 3.98 0 3.98-35.16 22.97-35.16Q25.44-35.16 27.7-34.5 29.96-33.84 31.69-32.51 33.42-31.18 34.46-29.16 35.5-27.15 35.5-24.44L35.5-24.44Q35.5-22.73 35.01-21.23 34.52-19.73 33.65-18.48 32.79-17.24 31.62-16.24 30.44-15.23 29.05-14.55 27.66-13.87 26.11-13.5 24.56-13.13 22.97-13.13L22.97-13.13 13.67-13.13ZM25.68-24.44L25.68-24.44Q25.68-27.83 23.96-29.77 22.24-31.71 18.77-31.71L18.77-31.71 13.67-31.71 13.67-16.46 18.77-16.46Q20.63-16.46 21.94-17.05 23.24-17.65 24.07-18.73 24.9-19.8 25.29-21.25 25.68-22.71 25.68-24.44ZM65.79-4.47L65.79 0 40.55 0 40.55-35.16 50.24-35.16 50.24-4.47 65.79-4.47ZM103.83-16.82L103.83-16.82 103.83-16.36Q103.78-14.31 103.4-12.11 103.02-9.91 102.34-7.71 101.66-5.52 100.7-3.37 99.75-1.22 98.57 0.74 97.38 2.71 96.02 4.43 94.65 6.15 93.13 7.47L93.13 7.47 89.5 5.37Q90.35 3.93 91.05 2.23 91.74 0.54 92.3-1.32 92.87-3.17 93.27-5.13 93.67-7.08 93.94-9.01 94.21-10.94 94.34-12.81 94.48-14.67 94.48-16.36L94.48-16.36Q94.48-17.68 94.47-19.35 94.45-21.02 94.27-22.75 94.09-24.49 93.67-26.14 93.26-27.78 92.44-29.08 91.62-30.37 90.34-31.15 89.06-31.93 87.15-31.93L87.15-31.93Q85.47-31.93 84.26-31.36 83.05-30.79 82.21-29.82 81.37-28.86 80.87-27.59 80.37-26.32 80.09-24.91 79.8-23.51 79.72-22.08 79.63-20.65 79.63-19.38L79.63-19.38 79.63-12.57 90.16-12.57 90.16-8.54 79.63-8.54 79.63 0 69.94 0 69.94-17.87Q69.94-21.7 71.16-25 72.38-28.3 74.62-30.73 76.85-33.15 79.99-34.53 83.12-35.91 86.98-35.91L86.98-35.91Q89.59-35.91 91.88-35.17 94.16-34.42 96.04-33.12 97.92-31.81 99.4-30.02 100.87-28.22 101.86-26.1 102.85-23.97 103.36-21.61 103.88-19.24 103.83-16.82ZM114.62-24.12L114.62 0 110.12 0 110.12-35.16 116.42-35.16 137.79-11.01 137.79-35.16 142.25-35.16 142.25 0 135.95 0 114.62-24.12ZM166.47-30.66L166.47 0 156.78 0 156.78-30.66 147.21-30.66 147.21-35.16 176.04-35.16 176.04-30.66 166.47-30.66ZM223.96-10.74L223.96-10.74Q223.96-8.47 223.39-6.74 222.81-5 221.77-3.74 220.74-2.47 219.32-1.61 217.9-0.76 216.23-0.24 214.56 0.27 212.69 0.49 210.82 0.71 208.9 0.71L208.9 0.71Q206.36 0.71 204.21 0.33 202.06-0.05 200.17-0.87 198.28-1.68 196.53-2.98 194.78-4.27 193.05-6.13L193.05-6.13 198.03-11.18Q198.72-9.5 199.91-8.07 201.11-6.64 202.54-5.62 203.96-4.59 205.5-4 207.04-3.42 208.41-3.42L208.41-3.42Q210.02-3.42 211.44-3.65 212.85-3.88 213.9-4.42 214.95-4.96 215.55-5.85 216.15-6.74 216.15-8.08L216.15-8.08Q216.15-9.11 215.68-9.84 215.22-10.57 214.47-11.1 213.73-11.62 212.78-11.99 211.83-12.35 210.84-12.61 209.85-12.87 208.9-13.07 207.94-13.28 207.21-13.5L207.21-13.5Q205.77-13.92 204.21-14.39 202.65-14.87 201.13-15.48 199.62-16.09 198.26-16.88 196.91-17.68 195.88-18.76 194.86-19.85 194.25-21.28 193.64-22.71 193.64-24.56L193.64-24.56Q193.64-26.78 194.19-28.5 194.74-30.22 195.74-31.49 196.74-32.76 198.11-33.63 199.47-34.5 201.11-35.02 202.74-35.55 204.59-35.78 206.43-36.01 208.36-36.01L208.36-36.01Q211-36.01 213.16-35.52 215.32-35.03 217.15-34.13 218.98-33.23 220.51-31.97 222.03-30.71 223.37-29.17L223.37-29.17 218.39-24.12Q217.81-25.88 216.77-27.29 215.73-28.71 214.46-29.72 213.19-30.74 211.8-31.29 210.41-31.84 209.12-31.84L209.12-31.84Q207.43-31.84 206.02-31.6 204.6-31.37 203.59-30.85 202.57-30.32 202.01-29.43 201.45-28.54 201.45-27.22L201.45-27.22Q201.45-26.17 201.86-25.44 202.28-24.71 202.98-24.19 203.67-23.68 204.55-23.35 205.43-23.02 206.37-22.78 207.31-22.53 208.22-22.35 209.14-22.17 209.9-21.95L209.9-21.95Q211.36-21.53 212.97-21.07 214.58-20.61 216.15-19.98 217.71-19.36 219.13-18.55 220.54-17.75 221.62-16.64 222.69-15.53 223.32-14.07 223.96-12.62 223.96-10.74ZM233.19-35.16L240.29-35.16Q239.63-33.18 239.14-31.07 238.65-28.96 238.34-26.84 238.02-24.73 237.86-22.68 237.7-20.63 237.7-18.8L237.7-18.8Q237.7-17.46 237.71-15.78 237.73-14.11 237.91-12.38 238.09-10.64 238.51-9 238.92-7.35 239.74-6.05 240.56-4.76 241.84-3.98 243.12-3.2 245.03-3.2L245.03-3.2Q246.71-3.2 247.92-3.77 249.13-4.35 249.97-5.32 250.81-6.3 251.31-7.57 251.81-8.84 252.09-10.23 252.38-11.62 252.46-13.05 252.55-14.48 252.55-15.77L252.55-15.77 252.55-35.16 262.24-35.16 262.24-17.29Q262.24-13.45 261.02-10.16 259.8-6.86 257.58-4.43 255.35-2 252.2-0.62 249.05 0.76 245.22 0.76L245.22 0.76Q242.59 0.76 240.31 0.01 238.04-0.73 236.15-2.04 234.26-3.34 232.78-5.14 231.31-6.93 230.32-9.06 229.33-11.18 228.82-13.54 228.3-15.89 228.35-18.31L228.35-18.31 228.35-18.8Q228.38-20.75 228.74-22.84 229.11-24.93 229.73-27.03 230.35-29.13 231.23-31.19 232.11-33.25 233.19-35.16L233.19-35.16ZM279.47-13.13L279.47 0 269.78 0 269.78-35.16 288.77-35.16Q291.24-35.16 293.5-34.5 295.76-33.84 297.49-32.51 299.22-31.18 300.26-29.16 301.3-27.15 301.3-24.44L301.3-24.44Q301.3-22.73 300.81-21.23 300.32-19.73 299.46-18.48 298.59-17.24 297.42-16.24 296.24-15.23 294.85-14.55 293.46-13.87 291.91-13.5 290.36-13.13 288.77-13.13L288.77-13.13 279.47-13.13ZM291.48-24.44L291.48-24.44Q291.48-27.83 289.76-29.77 288.04-31.71 284.57-31.71L284.57-31.71 279.47-31.71 279.47-16.46 284.57-16.46Q286.43-16.46 287.74-17.05 289.04-17.65 289.87-18.73 290.7-19.8 291.09-21.25 291.48-22.71 291.48-24.44ZM316.04-13.13L316.04 0 306.35 0 306.35-35.16 325.34-35.16Q327.81-35.16 330.07-34.5 332.33-33.84 334.06-32.51 335.79-31.18 336.83-29.16 337.87-27.15 337.87-24.44L337.87-24.44Q337.87-22.73 337.38-21.23 336.89-19.73 336.02-18.48 335.16-17.24 333.99-16.24 332.81-15.23 331.42-14.55 330.03-13.87 328.48-13.5 326.93-13.13 325.34-13.13L325.34-13.13 316.04-13.13ZM328.05-24.44L328.05-24.44Q328.05-27.83 326.33-29.77 324.61-31.71 321.14-31.71L321.14-31.71 316.04-31.71 316.04-16.46 321.14-16.46Q323-16.46 324.31-17.05 325.61-17.65 326.44-18.73 327.27-19.8 327.66-21.25 328.05-22.71 328.05-24.44ZM379.61-17.63L379.61-17.63Q379.61-13.38 378.15-9.97 376.68-6.57 374.1-4.2 371.51-1.83 367.97-0.56 364.43 0.71 360.3 0.71L360.3 0.71Q356.18 0.71 352.64-0.56 349.1-1.83 346.51-4.2 343.92-6.57 342.46-9.97 340.99-13.38 340.99-17.63L340.99-17.63Q340.99-21.95 342.44-25.35 343.9-28.76 346.47-31.12 349.05-33.47 352.59-34.73 356.13-35.99 360.3-35.99L360.3-35.99Q364.48-35.99 368.02-34.73 371.56-33.47 374.13-31.12 376.71-28.76 378.16-25.35 379.61-21.95 379.61-17.63ZM369.75-17.63L369.75-17.63Q369.75-19.24 369.6-20.92 369.46-22.61 369.07-24.19 368.68-25.78 368-27.17 367.33-28.56 366.28-29.6 365.23-30.64 363.76-31.24 362.28-31.84 360.3-31.84L360.3-31.84Q358.3-31.84 356.81-31.24 355.32-30.64 354.27-29.61 353.22-28.59 352.56-27.2 351.9-25.81 351.53-24.23 351.15-22.66 351-20.96 350.85-19.26 350.85-17.63L350.85-17.63Q350.85-16.02 351-14.33 351.15-12.65 351.54-11.07 351.93-9.5 352.6-8.11 353.27-6.71 354.32-5.68 355.37-4.64 356.85-4.03 358.32-3.42 360.3-3.42L360.3-3.42Q362.23-3.42 363.67-4.04 365.11-4.66 366.16-5.73 367.21-6.79 367.91-8.19 368.6-9.59 369.01-11.17 369.41-12.74 369.58-14.4 369.75-16.06 369.75-17.63ZM395.33-13.13L395.33 0 385.64 0 385.64-35.16 402.93-35.16Q405.37-35.16 407.64-34.58 409.91-34.01 411.65-32.78 413.4-31.54 414.44-29.59 415.48-27.64 415.48-24.85L415.48-24.85Q415.48-22.68 414.56-20.76 413.64-18.85 412.12-17.35 410.59-15.84 408.62-14.86 406.64-13.87 404.51-13.55L404.51-13.55Q405.47-11.94 406.5-10.5 407.54-9.06 408.6-7.8 409.66-6.54 410.71-5.48 411.76-4.42 412.72-3.54L412.72-3.54Q414.96-1.49 417.16 0L417.16 0 405.08 0Q403.61-1.39 402.29-3.34L402.29-3.34Q401.17-5 400.03-7.46 398.9-9.91 398.29-13.13L398.29-13.13 395.33-13.13ZM405.64-24.85L405.64-24.85Q405.64-28.39 403.92-30.05 402.19-31.71 398.75-31.71L398.75-31.71 395.33-31.71 395.33-16.46 398.75-16.46Q400.58-16.46 401.89-17.15 403.2-17.85 404.03-19.01 404.86-20.17 405.25-21.68 405.64-23.19 405.64-24.85ZM437.3-30.66L437.3 0 427.61 0 427.61-30.66 418.04-30.66 418.04-35.16 446.87-35.16 446.87-30.66 437.3-30.66Z" opacity="1" transform="matrix(1,0,0,1,0,0)" fill="#111111" class="wordmark-text-0" data-fill-palette-color="primary" id="text-0"></path></svg></g></svg></g><g transform="matrix(1,0,0,1,92.15317874332757,47.9946003927417)"><svg viewBox="0 0 211.21364251334484 23.995824724947635" height="23.995824724947635" width="211.21364251334484"><g transform="matrix(1,0,0,1,0,0)"><svg width="211.21364251334484" viewBox="4 -36.01 409.34 46.51" height="23.995824724947635" data-palette-color="#111111"><path d="M26.49-14.99L9.5-14.99Q8.47-14.99 7.56-15.39 6.64-15.8 5.96-16.47 5.27-17.14 4.88-18.05 4.49-18.97 4.49-20L4.49-20 4.49-30Q4.49-31.03 4.88-31.95 5.27-32.86 5.96-33.53 6.64-34.2 7.56-34.61 8.47-35.01 9.5-35.01L9.5-35.01 26.49-35.01Q27.51-35.01 28.43-34.61 29.35-34.2 30.03-33.53 30.71-32.86 31.1-31.95 31.49-31.03 31.49-30L31.49-30 31.49-25.49 26.49-25.49 26.49-30 9.5-30 9.5-20 26.49-20Q27.51-20 28.43-19.6 29.35-19.21 30.03-18.53 30.71-17.85 31.1-16.93 31.49-16.02 31.49-14.99L31.49-14.99 31.49-5Q31.49-3.98 31.1-3.06 30.71-2.15 30.03-1.46 29.35-0.78 28.43-0.39 27.51 0 26.49 0L26.49 0 9.01 0Q7.98 0 7.07-0.39 6.15-0.78 5.47-1.46 4.79-2.15 4.39-3.06 4-3.98 4-5L4-5 4-9.5 9.01-9.5 9.01-5 26.49-5 26.49-14.99ZM71.6-21.19L60.62-21.19 60.62 0 55.81 0 55.81-21.19 44.8-21.19 44.8 0 40.01 0 40.01-26 44.8-26 44.8-21.41Q44.85-22.36 45.24-23.21 45.63-24.05 46.27-24.67 46.92-25.29 47.78-25.65 48.63-26 49.61-26L49.61-26 55.81-26Q56.76-26 57.61-25.65 58.47-25.29 59.13-24.67 59.79-24.05 60.19-23.21 60.59-22.36 60.62-21.41L60.62-21.41Q60.67-22.36 61.04-23.21 61.42-24.05 62.07-24.67 62.72-25.29 63.57-25.65 64.43-26 65.4-26L65.4-26 71.6-26Q72.6-26 73.48-25.62 74.36-25.24 75.01-24.6 75.66-23.95 76.04-23.07 76.41-22.19 76.41-21.19L76.41-21.19 76.41 0 71.6 0 71.6-21.19ZM84.42-4.81L84.42-11.35Q84.42-12.35 84.8-13.22 85.18-14.09 85.82-14.75 86.47-15.41 87.35-15.78 88.23-16.16 89.2-16.16L89.2-16.16 101.61-16.16 101.61-21.19 85.91-21.19 85.91-26 101.61-26Q102.61-26 103.49-25.62 104.37-25.24 105.01-24.6 105.66-23.95 106.04-23.07 106.42-22.19 106.42-21.19L106.42-21.19 106.42 0 101.61 0 101.61-4.39Q101.53-3.49 101.12-2.69 100.7-1.88 100.06-1.28 99.41-0.68 98.58-0.34 97.75 0 96.82 0L96.82 0 89.2 0Q88.23 0 87.35-0.38 86.47-0.76 85.82-1.4 85.18-2.05 84.8-2.93 84.42-3.81 84.42-4.81L84.42-4.81ZM89.2-11.35L89.2-4.81 101.61-4.81 101.61-11.35 89.2-11.35ZM129.12-21.19L119.21-21.19 119.21 0 114.42 0 114.42-26 119.21-26 119.21-21.41Q119.26-22.36 119.65-23.21 120.04-24.05 120.68-24.67 121.33-25.29 122.18-25.65 123.04-26 124.02-26L124.02-26 129.12-26Q130.12-26 130.99-25.62 131.85-25.24 132.51-24.6 133.17-23.95 133.55-23.07 133.93-22.19 133.93-21.19L133.93-21.19 133.93-16.8 129.12-16.8 129.12-21.19ZM138.39-21.19L138.39-26 144.74-26 144.74-34.01 149.55-34.01 149.55-26 158.1-26 158.1-21.19 149.55-21.19 149.55-4.81 158.1-4.81 158.1 0 149.55 0Q148.57 0 147.7-0.38 146.82-0.76 146.16-1.4 145.5-2.05 145.12-2.93 144.74-3.81 144.74-4.81L144.74-4.81 144.74-21.19 138.39-21.19ZM181.58-35.01L186.58-35.01 186.58 0 181.58 0 181.58-35.01ZM209.77-21.19L199.86-21.19 199.86 0 195.08 0 195.08-26 199.86-26 199.86-21.41Q199.91-22.36 200.3-23.21 200.69-24.05 201.34-24.67 201.98-25.29 202.84-25.65 203.69-26 204.67-26L204.67-26 209.77-26Q210.77-26 211.64-25.62 212.51-25.24 213.17-24.6 213.83-23.95 214.2-23.07 214.58-22.19 214.58-21.19L214.58-21.19 214.58-16.8 209.77-16.8 209.77-21.19ZM235.26-21.19L225.35-21.19 225.35 0 220.56 0 220.56-26 225.35-26 225.35-21.41Q225.4-22.36 225.79-23.21 226.18-24.05 226.82-24.67 227.47-25.29 228.32-25.65 229.18-26 230.16-26L230.16-26 235.26-26Q236.26-26 237.13-25.62 237.99-25.24 238.65-24.6 239.31-23.95 239.69-23.07 240.07-22.19 240.07-21.19L240.07-21.19 240.07-16.8 235.26-16.8 235.26-21.19ZM246.29-26L251.1-26 251.1 0 246.29 0 246.29-26ZM246.05-31.01L246.05-36.01 251.34-36.01 251.34-31.01 246.05-31.01ZM259.35-5.81L259.35-21.19Q259.35-22.19 259.73-23.07 260.11-23.95 260.75-24.6 261.4-25.24 262.28-25.62 263.16-26 264.14-26L264.14-26 272.75-26Q273.71-26 274.56-25.65 275.41-25.29 276.06-24.67 276.71-24.05 277.11-23.21 277.51-22.36 277.54-21.41L277.54-21.41 277.54-26 282.35-26 282.35 5.69Q282.35 6.69 281.97 7.57 281.59 8.45 280.94 9.09 280.3 9.74 279.42 10.12 278.54 10.5 277.54 10.5L277.54 10.5 262.35 10.5 262.35 5.69 277.54 5.69 277.54-1 264.14-1Q263.16-1 262.28-1.38 261.4-1.76 260.75-2.4 260.11-3.05 259.73-3.93 259.35-4.81 259.35-5.81L259.35-5.81ZM264.14-5.81L277.54-5.81 277.54-21.19 264.14-21.19 264.14-5.81ZM290.35-4.81L290.35-11.35Q290.35-12.35 290.73-13.22 291.11-14.09 291.76-14.75 292.4-15.41 293.28-15.78 294.16-16.16 295.14-16.16L295.14-16.16 307.54-16.16 307.54-21.19 291.84-21.19 291.84-26 307.54-26Q308.54-26 309.42-25.62 310.3-25.24 310.95-24.6 311.59-23.95 311.97-23.07 312.35-22.19 312.35-21.19L312.35-21.19 312.35 0 307.54 0 307.54-4.39Q307.47-3.49 307.05-2.69 306.64-1.88 305.99-1.28 305.34-0.68 304.51-0.34 303.68 0 302.76 0L302.76 0 295.14 0Q294.16 0 293.28-0.38 292.4-0.76 291.76-1.4 291.11-2.05 290.73-2.93 290.35-3.81 290.35-4.81L290.35-4.81ZM295.14-11.35L295.14-4.81 307.54-4.81 307.54-11.35 295.14-11.35ZM318.84-21.19L318.84-26 325.19-26 325.19-34.01 330-34.01 330-26 338.54-26 338.54-21.19 330-21.19 330-4.81 338.54-4.81 338.54 0 330 0Q329.02 0 328.14-0.38 327.26-0.76 326.61-1.4 325.95-2.05 325.57-2.93 325.19-3.81 325.19-4.81L325.19-4.81 325.19-21.19 318.84-21.19ZM346.79-26L351.6-26 351.6 0 346.79 0 346.79-26ZM346.55-31.01L346.55-36.01 351.85-36.01 351.85-31.01 346.55-31.01ZM382.34-21.19L382.34-4.81Q382.34-3.81 381.96-2.93 381.58-2.05 380.93-1.4 380.29-0.76 379.42-0.38 378.55 0 377.55 0L377.55 0 364.64 0Q363.66 0 362.78-0.38 361.9-0.76 361.26-1.4 360.61-2.05 360.23-2.93 359.85-3.81 359.85-4.81L359.85-4.81 359.85-21.19Q359.85-22.19 360.23-23.07 360.61-23.95 361.26-24.6 361.9-25.24 362.78-25.62 363.66-26 364.64-26L364.64-26 377.55-26Q378.55-26 379.42-25.62 380.29-25.24 380.93-24.6 381.58-23.95 381.96-23.07 382.34-22.19 382.34-21.19L382.34-21.19ZM377.55-21.19L364.64-21.19 364.64-4.81 377.55-4.81 377.55-21.19ZM413.34-21.19L413.34 0 408.53 0 408.53-21.19 395.13-21.19 395.13 0 390.34 0 390.34-26 395.13-26 395.13-21.41Q395.18-22.36 395.57-23.21 395.96-24.05 396.61-24.67 397.25-25.29 398.11-25.65 398.96-26 399.94-26L399.94-26 408.53-26Q409.53-26 410.41-25.62 411.29-25.24 411.94-24.6 412.58-23.95 412.96-23.07 413.34-22.19 413.34-21.19L413.34-21.19Z" opacity="1" transform="matrix(1,0,0,1,0,0)" fill="#111111" class="slogan-text-1" data-fill-palette-color="secondary" id="text-1"></path></svg></g></svg></g></svg></g></svg></g><g transform="matrix(1,0,0,1,116.27938807615438,0)"><svg viewBox="0 0 162.96122384769123 162.96122384769123" height="162.96122384769123" width="162.96122384769123"><g><svg></svg></g><g id="icon-0"><svg viewBox="0 0 162.96122384769123 162.96122384769123" height="162.96122384769123" width="162.96122384769123"><g></g><g transform="matrix(1,0,0,1,52.93461409983725,34.37811713168448)"><svg viewBox="0 0 57.09199564801674 94.20498958432226" height="94.20498958432226" width="57.09199564801674"><g><svg xmlns="http://www.w3.org/2000/svg" xmlns:xlink="http://www.w3.org/1999/xlink" version="1.1" x="0" y="0" viewBox="24.3409043688759 7.654 51.318258500049936 84.678" enable-background="new 0 0 100 100" xml:space="preserve" height="94.20498958432226" width="57.09199564801674" class="icon-dxe-0" data-fill-palette-color="quaternary" id="dxe-0"><g fill="#ffffff" data-fill-palette-color="quaternary"><path fill="#ffffff" d="M69.231 64.095C66.81 64.095 64.584 63.163 62.922 61.496A9.06 9.06 0 0 1 56.579 64.095 9.03 9.03 0 0 1 50.18 61.418C48.464 63.071 46.003 64.095 43.511 64.095A9.05 9.05 0 0 1 37.172 61.496C35.511 63.163 33.284 64.095 30.865 64.095A9.04 9.04 0 0 1 24.824 61.772C21.699 77.958 34.157 92.332 50.001 92.332 65.818 92.332 78.261 78.005 75.191 61.852A9.04 9.04 0 0 1 69.231 64.095" data-fill-palette-color="quaternary"></path><path fill="#ffffff" d="M56.58 61.556C58.691 61.556 60.677 60.395 61.893 58.668 62.133 58.33 62.52 58 62.933 58H62.937C63.351 58 63.739 58.334 63.975 58.674 65.191 60.422 67.108 61.49 69.232 61.49 71.298 61.49 73.235 60.53 74.457 58.871A30 30 0 0 0 72.69 54.399C63.127 34.916 60.078 29.174 50.001 7.654 40.756 28.36 36.872 34.93 27.312 54.414A30 30 0 0 0 25.572 58.817 6.5 6.5 0 0 0 30.866 61.554C32.988 61.554 34.904 60.551 36.121 58.803 36.358 58.462 36.72 58.232 37.164 58.258 37.576 58.258 37.963 58.459 38.201 58.797A6.51 6.51 0 0 0 43.512 61.555C45.728 61.555 47.994 60.431 49.152 58.758 49.169 58.734 49.19 58.714 49.209 58.692 49.238 58.657 49.265 58.619 49.299 58.588 49.336 58.55 49.375 58.519 49.416 58.486 49.435 58.471 49.452 58.453 49.473 58.437L49.49 58.429C49.534 58.398 49.583 58.374 49.631 58.349 49.66 58.335 49.686 58.318 49.714 58.307 49.756 58.289 49.8 58.279 49.843 58.267 49.879 58.256 49.915 58.242 49.951 58.235 49.993 58.227 50.034 58.226 50.076 58.222 50.116 58.218 50.154 58.212 50.192 58.212A1 1 0 0 1 50.326 58.225C50.362 58.227 50.399 58.228 50.434 58.235A1 1 0 0 1 50.559 58.271C50.596 58.282 50.634 58.291 50.671 58.305 50.706 58.318 50.739 58.339 50.774 58.358A1 1 0 0 1 50.896 58.424L50.918 58.437C50.944 58.455 50.965 58.479 50.99 58.498 51.024 58.526 51.057 58.552 51.089 58.583 51.125 58.618 51.155 58.659 51.187 58.696 51.204 58.718 51.223 58.736 51.238 58.758A6.5 6.5 0 0 0 56.58 61.556" data-fill-palette-color="quaternary"></path></g></svg></g></svg></g></svg></g></svg></g><g></g></svg></g><defs></defs><mask id="54b26dba-7b56-41ab-ba3b-6066a0df03a1"><g id="SvgjsG1075"><svg viewBox="0 0 386.01872520996676 247.2" height="247.2" width="386.01872520996676"><g><svg viewBox="0 0 395.52 253.28445905524057" height="247.2" width="386.01872520996676"><g transform="matrix(1,0,0,1,0,181.29403393755123)"><svg viewBox="0 0 395.52 71.99042511768934" height="71.99042511768934" width="395.52"><g id="SvgjsG1074"><svg viewBox="0 0 395.52 71.99042511768934" height="71.99042511768934" width="395.52" id="SvgjsSvg1073"><g><svg viewBox="0 0 395.52 38.82819534781171" height="38.82819534781171" width="395.52"><g transform="matrix(1,0,0,1,0,0)"><svg width="395.52" viewBox="3.98 -36.01 442.89 43.48" height="38.82819534781171" data-palette-color="#111111"><path d="M13.67-13.13L13.67 0 3.98 0 3.98-35.16 22.97-35.16Q25.44-35.16 27.7-34.5 29.96-33.84 31.69-32.51 33.42-31.18 34.46-29.16 35.5-27.15 35.5-24.44L35.5-24.44Q35.5-22.73 35.01-21.23 34.52-19.73 33.65-18.48 32.79-17.24 31.62-16.24 30.44-15.23 29.05-14.55 27.66-13.87 26.11-13.5 24.56-13.13 22.97-13.13L22.97-13.13 13.67-13.13ZM25.68-24.44L25.68-24.44Q25.68-27.83 23.96-29.77 22.24-31.71 18.77-31.71L18.77-31.71 13.67-31.71 13.67-16.46 18.77-16.46Q20.63-16.46 21.94-17.05 23.24-17.65 24.07-18.73 24.9-19.8 25.29-21.25 25.68-22.71 25.68-24.44ZM65.79-4.47L65.79 0 40.55 0 40.55-35.16 50.24-35.16 50.24-4.47 65.79-4.47ZM103.83-16.82L103.83-16.82 103.83-16.36Q103.78-14.31 103.4-12.11 103.02-9.91 102.34-7.71 101.66-5.52 100.7-3.37 99.75-1.22 98.57 0.74 97.38 2.71 96.02 4.43 94.65 6.15 93.13 7.47L93.13 7.47 89.5 5.37Q90.35 3.93 91.05 2.23 91.74 0.54 92.3-1.32 92.87-3.17 93.27-5.13 93.67-7.08 93.94-9.01 94.21-10.94 94.34-12.81 94.48-14.67 94.48-16.36L94.48-16.36Q94.48-17.68 94.47-19.35 94.45-21.02 94.27-22.75 94.09-24.49 93.67-26.14 93.26-27.78 92.44-29.08 91.62-30.37 90.34-31.15 89.06-31.93 87.15-31.93L87.15-31.93Q85.47-31.93 84.26-31.36 83.05-30.79 82.21-29.82 81.37-28.86 80.87-27.59 80.37-26.32 80.09-24.91 79.8-23.51 79.72-22.08 79.63-20.65 79.63-19.38L79.63-19.38 79.63-12.57 90.16-12.57 90.16-8.54 79.63-8.54 79.63 0 69.94 0 69.94-17.87Q69.94-21.7 71.16-25 72.38-28.3 74.62-30.73 76.85-33.15 79.99-34.53 83.12-35.91 86.98-35.91L86.98-35.91Q89.59-35.91 91.88-35.17 94.16-34.42 96.04-33.12 97.92-31.81 99.4-30.02 100.87-28.22 101.86-26.1 102.85-23.97 103.36-21.61 103.88-19.24 103.83-16.82ZM114.62-24.12L114.62 0 110.12 0 110.12-35.16 116.42-35.16 137.79-11.01 137.79-35.16 142.25-35.16 142.25 0 135.95 0 114.62-24.12ZM166.47-30.66L166.47 0 156.78 0 156.78-30.66 147.21-30.66 147.21-35.16 176.04-35.16 176.04-30.66 166.47-30.66ZM223.96-10.74L223.96-10.74Q223.96-8.47 223.39-6.74 222.81-5 221.77-3.74 220.74-2.47 219.32-1.61 217.9-0.76 216.23-0.24 214.56 0.27 212.69 0.49 210.82 0.71 208.9 0.71L208.9 0.71Q206.36 0.71 204.21 0.33 202.06-0.05 200.17-0.87 198.28-1.68 196.53-2.98 194.78-4.27 193.05-6.13L193.05-6.13 198.03-11.18Q198.72-9.5 199.91-8.07 201.11-6.64 202.54-5.62 203.96-4.59 205.5-4 207.04-3.42 208.41-3.42L208.41-3.42Q210.02-3.42 211.44-3.65 212.85-3.88 213.9-4.42 214.95-4.96 215.55-5.85 216.15-6.74 216.15-8.08L216.15-8.08Q216.15-9.11 215.68-9.84 215.22-10.57 214.47-11.1 213.73-11.62 212.78-11.99 211.83-12.35 210.84-12.61 209.85-12.87 208.9-13.07 207.94-13.28 207.21-13.5L207.21-13.5Q205.77-13.92 204.21-14.39 202.65-14.87 201.13-15.48 199.62-16.09 198.26-16.88 196.91-17.68 195.88-18.76 194.86-19.85 194.25-21.28 193.64-22.71 193.64-24.56L193.64-24.56Q193.64-26.78 194.19-28.5 194.74-30.22 195.74-31.49 196.74-32.76 198.11-33.63 199.47-34.5 201.11-35.02 202.74-35.55 204.59-35.78 206.43-36.01 208.36-36.01L208.36-36.01Q211-36.01 213.16-35.52 215.32-35.03 217.15-34.13 218.98-33.23 220.51-31.97 222.03-30.71 223.37-29.17L223.37-29.17 218.39-24.12Q217.81-25.88 216.77-27.29 215.73-28.71 214.46-29.72 213.19-30.74 211.8-31.29 210.41-31.84 209.12-31.84L209.12-31.84Q207.43-31.84 206.02-31.6 204.6-31.37 203.59-30.85 202.57-30.32 202.01-29.43 201.45-28.54 201.45-27.22L201.45-27.22Q201.45-26.17 201.86-25.44 202.28-24.71 202.98-24.19 203.67-23.68 204.55-23.35 205.43-23.02 206.37-22.78 207.31-22.53 208.22-22.35 209.14-22.17 209.9-21.95L209.9-21.95Q211.36-21.53 212.97-21.07 214.58-20.61 216.15-19.98 217.71-19.36 219.13-18.55 220.54-17.75 221.62-16.64 222.69-15.53 223.32-14.07 223.96-12.62 223.96-10.74ZM233.19-35.16L240.29-35.16Q239.63-33.18 239.14-31.07 238.65-28.96 238.34-26.84 238.02-24.73 237.86-22.68 237.7-20.63 237.7-18.8L237.7-18.8Q237.7-17.46 237.71-15.78 237.73-14.11 237.91-12.38 238.09-10.64 238.51-9 238.92-7.35 239.74-6.05 240.56-4.76 241.84-3.98 243.12-3.2 245.03-3.2L245.03-3.2Q246.71-3.2 247.92-3.77 249.13-4.35 249.97-5.32 250.81-6.3 251.31-7.57 251.81-8.84 252.09-10.23 252.38-11.62 252.46-13.05 252.55-14.48 252.55-15.77L252.55-15.77 252.55-35.16 262.24-35.16 262.24-17.29Q262.24-13.45 261.02-10.16 259.8-6.86 257.58-4.43 255.35-2 252.2-0.62 249.05 0.76 245.22 0.76L245.22 0.76Q242.59 0.76 240.31 0.01 238.04-0.73 236.15-2.04 234.26-3.34 232.78-5.14 231.31-6.93 230.32-9.06 229.33-11.18 228.82-13.54 228.3-15.89 228.35-18.31L228.35-18.31 228.35-18.8Q228.38-20.75 228.74-22.84 229.11-24.93 229.73-27.03 230.35-29.13 231.23-31.19 232.11-33.25 233.19-35.16L233.19-35.16ZM279.47-13.13L279.47 0 269.78 0 269.78-35.16 288.77-35.16Q291.24-35.16 293.5-34.5 295.76-33.84 297.49-32.51 299.22-31.18 300.26-29.16 301.3-27.15 301.3-24.44L301.3-24.44Q301.3-22.73 300.81-21.23 300.32-19.73 299.46-18.48 298.59-17.24 297.42-16.24 296.24-15.23 294.85-14.55 293.46-13.87 291.91-13.5 290.36-13.13 288.77-13.13L288.77-13.13 279.47-13.13ZM291.48-24.44L291.48-24.44Q291.48-27.83 289.76-29.77 288.04-31.71 284.57-31.71L284.57-31.71 279.47-31.71 279.47-16.46 284.57-16.46Q286.43-16.46 287.74-17.05 289.04-17.65 289.87-18.73 290.7-19.8 291.09-21.25 291.48-22.71 291.48-24.44ZM316.04-13.13L316.04 0 306.35 0 306.35-35.16 325.34-35.16Q327.81-35.16 330.07-34.5 332.33-33.84 334.06-32.51 335.79-31.18 336.83-29.16 337.87-27.15 337.87-24.44L337.87-24.44Q337.87-22.73 337.38-21.23 336.89-19.73 336.02-18.48 335.16-17.24 333.99-16.24 332.81-15.23 331.42-14.55 330.03-13.87 328.48-13.5 326.93-13.13 325.34-13.13L325.34-13.13 316.04-13.13ZM328.05-24.44L328.05-24.44Q328.05-27.83 326.33-29.77 324.61-31.71 321.14-31.71L321.14-31.71 316.04-31.71 316.04-16.46 321.14-16.46Q323-16.46 324.31-17.05 325.61-17.65 326.44-18.73 327.27-19.8 327.66-21.25 328.05-22.71 328.05-24.44ZM379.61-17.63L379.61-17.63Q379.61-13.38 378.15-9.97 376.68-6.57 374.1-4.2 371.51-1.83 367.97-0.56 364.43 0.71 360.3 0.71L360.3 0.71Q356.18 0.71 352.64-0.56 349.1-1.83 346.51-4.2 343.92-6.57 342.46-9.97 340.99-13.38 340.99-17.63L340.99-17.63Q340.99-21.95 342.44-25.35 343.9-28.76 346.47-31.12 349.05-33.47 352.59-34.73 356.13-35.99 360.3-35.99L360.3-35.99Q364.48-35.99 368.02-34.73 371.56-33.47 374.13-31.12 376.71-28.76 378.16-25.35 379.61-21.95 379.61-17.63ZM369.75-17.63L369.75-17.63Q369.75-19.24 369.6-20.92 369.46-22.61 369.07-24.19 368.68-25.78 368-27.17 367.33-28.56 366.28-29.6 365.23-30.64 363.76-31.24 362.28-31.84 360.3-31.84L360.3-31.84Q358.3-31.84 356.81-31.24 355.32-30.64 354.27-29.61 353.22-28.59 352.56-27.2 351.9-25.81 351.53-24.23 351.15-22.66 351-20.96 350.85-19.26 350.85-17.63L350.85-17.63Q350.85-16.02 351-14.33 351.15-12.65 351.54-11.07 351.93-9.5 352.6-8.11 353.27-6.71 354.32-5.68 355.37-4.64 356.85-4.03 358.32-3.42 360.3-3.42L360.3-3.42Q362.23-3.42 363.67-4.04 365.11-4.66 366.16-5.73 367.21-6.79 367.91-8.19 368.6-9.59 369.01-11.17 369.41-12.74 369.58-14.4 369.75-16.06 369.75-17.63ZM395.33-13.13L395.33 0 385.64 0 385.64-35.16 402.93-35.16Q405.37-35.16 407.64-34.58 409.91-34.01 411.65-32.78 413.4-31.54 414.44-29.59 415.48-27.64 415.48-24.85L415.48-24.85Q415.48-22.68 414.56-20.76 413.64-18.85 412.12-17.35 410.59-15.84 408.62-14.86 406.64-13.87 404.51-13.55L404.51-13.55Q405.47-11.94 406.5-10.5 407.54-9.06 408.6-7.8 409.66-6.54 410.71-5.48 411.76-4.42 412.72-3.54L412.72-3.54Q414.96-1.49 417.16 0L417.16 0 405.08 0Q403.61-1.39 402.29-3.34L402.29-3.34Q401.17-5 400.03-7.46 398.9-9.91 398.29-13.13L398.29-13.13 395.33-13.13ZM405.64-24.85L405.64-24.85Q405.64-28.39 403.92-30.05 402.19-31.71 398.75-31.71L398.75-31.71 395.33-31.71 395.33-16.46 398.75-16.46Q400.58-16.46 401.89-17.15 403.2-17.85 404.03-19.01 404.86-20.17 405.25-21.68 405.64-23.19 405.64-24.85ZM437.3-30.66L437.3 0 427.61 0 427.61-30.66 418.04-30.66 418.04-35.16 446.87-35.16 446.87-30.66 437.3-30.66Z" opacity="1" transform="matrix(1,0,0,1,0,0)" fill="black" class="wordmark-text-0" id="SvgjsPath1072"></path></svg></g></svg></g><g transform="matrix(1,0,0,1,92.15317874332757,47.9946003927417)"><svg viewBox="0 0 211.21364251334484 23.995824724947635" height="23.995824724947635" width="211.21364251334484"><g transform="matrix(1,0,0,1,0,0)"><svg width="211.21364251334484" viewBox="4 -36.01 409.34 46.51" height="23.995824724947635" data-palette-color="#111111"><path d="M26.49-14.99L9.5-14.99Q8.47-14.99 7.56-15.39 6.64-15.8 5.96-16.47 5.27-17.14 4.88-18.05 4.49-18.97 4.49-20L4.49-20 4.49-30Q4.49-31.03 4.88-31.95 5.27-32.86 5.96-33.53 6.64-34.2 7.56-34.61 8.47-35.01 9.5-35.01L9.5-35.01 26.49-35.01Q27.51-35.01 28.43-34.61 29.35-34.2 30.03-33.53 30.71-32.86 31.1-31.95 31.49-31.03 31.49-30L31.49-30 31.49-25.49 26.49-25.49 26.49-30 9.5-30 9.5-20 26.49-20Q27.51-20 28.43-19.6 29.35-19.21 30.03-18.53 30.71-17.85 31.1-16.93 31.49-16.02 31.49-14.99L31.49-14.99 31.49-5Q31.49-3.98 31.1-3.06 30.71-2.15 30.03-1.46 29.35-0.78 28.43-0.39 27.51 0 26.49 0L26.49 0 9.01 0Q7.98 0 7.07-0.39 6.15-0.78 5.47-1.46 4.79-2.15 4.39-3.06 4-3.98 4-5L4-5 4-9.5 9.01-9.5 9.01-5 26.49-5 26.49-14.99ZM71.6-21.19L60.62-21.19 60.62 0 55.81 0 55.81-21.19 44.8-21.19 44.8 0 40.01 0 40.01-26 44.8-26 44.8-21.41Q44.85-22.36 45.24-23.21 45.63-24.05 46.27-24.67 46.92-25.29 47.78-25.65 48.63-26 49.61-26L49.61-26 55.81-26Q56.76-26 57.61-25.65 58.47-25.29 59.13-24.67 59.79-24.05 60.19-23.21 60.59-22.36 60.62-21.41L60.62-21.41Q60.67-22.36 61.04-23.21 61.42-24.05 62.07-24.67 62.72-25.29 63.57-25.65 64.43-26 65.4-26L65.4-26 71.6-26Q72.6-26 73.48-25.62 74.36-25.24 75.01-24.6 75.66-23.95 76.04-23.07 76.41-22.19 76.41-21.19L76.41-21.19 76.41 0 71.6 0 71.6-21.19ZM84.42-4.81L84.42-11.35Q84.42-12.35 84.8-13.22 85.18-14.09 85.82-14.75 86.47-15.41 87.35-15.78 88.23-16.16 89.2-16.16L89.2-16.16 101.61-16.16 101.61-21.19 85.91-21.19 85.91-26 101.61-26Q102.61-26 103.49-25.62 104.37-25.24 105.01-24.6 105.66-23.95 106.04-23.07 106.42-22.19 106.42-21.19L106.42-21.19 106.42 0 101.61 0 101.61-4.39Q101.53-3.49 101.12-2.69 100.7-1.88 100.06-1.28 99.41-0.68 98.58-0.34 97.75 0 96.82 0L96.82 0 89.2 0Q88.23 0 87.35-0.38 86.47-0.76 85.82-1.4 85.18-2.05 84.8-2.93 84.42-3.81 84.42-4.81L84.42-4.81ZM89.2-11.35L89.2-4.81 101.61-4.81 101.61-11.35 89.2-11.35ZM129.12-21.19L119.21-21.19 119.21 0 114.42 0 114.42-26 119.21-26 119.21-21.41Q119.26-22.36 119.65-23.21 120.04-24.05 120.68-24.67 121.33-25.29 122.18-25.65 123.04-26 124.02-26L124.02-26 129.12-26Q130.12-26 130.99-25.62 131.85-25.24 132.51-24.6 133.17-23.95 133.55-23.07 133.93-22.19 133.93-21.19L133.93-21.19 133.93-16.8 129.12-16.8 129.12-21.19ZM138.39-21.19L138.39-26 144.74-26 144.74-34.01 149.55-34.01 149.55-26 158.1-26 158.1-21.19 149.55-21.19 149.55-4.81 158.1-4.81 158.1 0 149.55 0Q148.57 0 147.7-0.38 146.82-0.76 146.16-1.4 145.5-2.05 145.12-2.93 144.74-3.81 144.74-4.81L144.74-4.81 144.74-21.19 138.39-21.19ZM181.58-35.01L186.58-35.01 186.58 0 181.58 0 181.58-35.01ZM209.77-21.19L199.86-21.19 199.86 0 195.08 0 195.08-26 199.86-26 199.86-21.41Q199.91-22.36 200.3-23.21 200.69-24.05 201.34-24.67 201.98-25.29 202.84-25.65 203.69-26 204.67-26L204.67-26 209.77-26Q210.77-26 211.64-25.62 212.51-25.24 213.17-24.6 213.83-23.95 214.2-23.07 214.58-22.19 214.58-21.19L214.58-21.19 214.58-16.8 209.77-16.8 209.77-21.19ZM235.26-21.19L225.35-21.19 225.35 0 220.56 0 220.56-26 225.35-26 225.35-21.41Q225.4-22.36 225.79-23.21 226.18-24.05 226.82-24.67 227.47-25.29 228.32-25.65 229.18-26 230.16-26L230.16-26 235.26-26Q236.26-26 237.13-25.62 237.99-25.24 238.65-24.6 239.31-23.95 239.69-23.07 240.07-22.19 240.07-21.19L240.07-21.19 240.07-16.8 235.26-16.8 235.26-21.19ZM246.29-26L251.1-26 251.1 0 246.29 0 246.29-26ZM246.05-31.01L246.05-36.01 251.34-36.01 251.34-31.01 246.05-31.01ZM259.35-5.81L259.35-21.19Q259.35-22.19 259.73-23.07 260.11-23.95 260.75-24.6 261.4-25.24 262.28-25.62 263.16-26 264.14-26L264.14-26 272.75-26Q273.71-26 274.56-25.65 275.41-25.29 276.06-24.67 276.71-24.05 277.11-23.21 277.51-22.36 277.54-21.41L277.54-21.41 277.54-26 282.35-26 282.35 5.69Q282.35 6.69 281.97 7.57 281.59 8.45 280.94 9.09 280.3 9.74 279.42 10.12 278.54 10.5 277.54 10.5L277.54 10.5 262.35 10.5 262.35 5.69 277.54 5.69 277.54-1 264.14-1Q263.16-1 262.28-1.38 261.4-1.76 260.75-2.4 260.11-3.05 259.73-3.93 259.35-4.81 259.35-5.81L259.35-5.81ZM264.14-5.81L277.54-5.81 277.54-21.19 264.14-21.19 264.14-5.81ZM290.35-4.81L290.35-11.35Q290.35-12.35 290.73-13.22 291.11-14.09 291.76-14.75 292.4-15.41 293.28-15.78 294.16-16.16 295.14-16.16L295.14-16.16 307.54-16.16 307.54-21.19 291.84-21.19 291.84-26 307.54-26Q308.54-26 309.42-25.62 310.3-25.24 310.95-24.6 311.59-23.95 311.97-23.07 312.35-22.19 312.35-21.19L312.35-21.19 312.35 0 307.54 0 307.54-4.39Q307.47-3.49 307.05-2.69 306.64-1.88 305.99-1.28 305.34-0.68 304.51-0.34 303.68 0 302.76 0L302.76 0 295.14 0Q294.16 0 293.28-0.38 292.4-0.76 291.76-1.4 291.11-2.05 290.73-2.93 290.35-3.81 290.35-4.81L290.35-4.81ZM295.14-11.35L295.14-4.81 307.54-4.81 307.54-11.35 295.14-11.35ZM318.84-21.19L318.84-26 325.19-26 325.19-34.01 330-34.01 330-26 338.54-26 338.54-21.19 330-21.19 330-4.81 338.54-4.81 338.54 0 330 0Q329.02 0 328.14-0.38 327.26-0.76 326.61-1.4 325.95-2.05 325.57-2.93 325.19-3.81 325.19-4.81L325.19-4.81 325.19-21.19 318.84-21.19ZM346.79-26L351.6-26 351.6 0 346.79 0 346.79-26ZM346.55-31.01L346.55-36.01 351.85-36.01 351.85-31.01 346.55-31.01ZM382.34-21.19L382.34-4.81Q382.34-3.81 381.96-2.93 381.58-2.05 380.93-1.4 380.29-0.76 379.42-0.38 378.55 0 377.55 0L377.55 0 364.64 0Q363.66 0 362.78-0.38 361.9-0.76 361.26-1.4 360.61-2.05 360.23-2.93 359.85-3.81 359.85-4.81L359.85-4.81 359.85-21.19Q359.85-22.19 360.23-23.07 360.61-23.95 361.26-24.6 361.9-25.24 362.78-25.62 363.66-26 364.64-26L364.64-26 377.55-26Q378.55-26 379.42-25.62 380.29-25.24 380.93-24.6 381.58-23.95 381.96-23.07 382.34-22.19 382.34-21.19L382.34-21.19ZM377.55-21.19L364.64-21.19 364.64-4.81 377.55-4.81 377.55-21.19ZM413.34-21.19L413.34 0 408.53 0 408.53-21.19 395.13-21.19 395.13 0 390.34 0 390.34-26 395.13-26 395.13-21.41Q395.18-22.36 395.57-23.21 395.96-24.05 396.61-24.67 397.25-25.29 398.11-25.65 398.96-26 399.94-26L399.94-26 408.53-26Q409.53-26 410.41-25.62 411.29-25.24 411.94-24.6 412.58-23.95 412.96-23.07 413.34-22.19 413.34-21.19L413.34-21.19Z" opacity="1" transform="matrix(1,0,0,1,0,0)" fill="black" class="slogan-text-1" id="SvgjsPath1071"></path></svg></g></svg></g></svg></g></svg></g><g transform="matrix(1,0,0,1,116.27938807615438,0)"><svg viewBox="0 0 162.96122384769123 162.96122384769123" height="162.96122384769123" width="162.96122384769123"><g><svg></svg></g><g id="SvgjsG1070"><svg viewBox="0 0 162.96122384769123 162.96122384769123" height="162.96122384769123" width="162.96122384769123"><g><path d="M0 81.481c0-45.001 36.48-81.481 81.481-81.481 45.001 0 81.481 36.48 81.48 81.481 0 45.001-36.48 81.481-81.48 81.48-45.001 0-81.481-36.48-81.481-81.48zM81.481 159.46c43.067 0 77.979-34.912 77.979-77.979 0-43.067-34.912-77.979-77.979-77.979-43.067 0-77.979 34.912-77.979 77.979 0 43.067 34.912 77.979 77.979 77.979z" fill="white" stroke="transparent"></path><ellipse rx="80.66580580460716" ry="80.66580580460716" cx="81.48061192384561" cy="81.48061192384561" fill="white" stroke="transparent" stroke-width="0" fill-opacity="1"></ellipse></g><g transform="matrix(1,0,0,1,52.93461409983725,34.37811713168448)"><svg viewBox="0 0 57.09199564801674 94.20498958432226" height="94.20498958432226" width="57.09199564801674"><g><svg xmlns="http://www.w3.org/2000/svg" xmlns:xlink="http://www.w3.org/1999/xlink" version="1.1" x="0" y="0" viewBox="24.3409043688759 7.654 51.318258500049936 84.678" enable-background="new 0 0 100 100" xml:space="preserve" height="94.20498958432226" width="57.09199564801674" class="icon-dxe-0" data-fill-palette-color="quaternary" id="SvgjsSvg1069"><g fill="black"><path fill="black" d="M69.231 64.095C66.81 64.095 64.584 63.163 62.922 61.496A9.06 9.06 0 0 1 56.579 64.095 9.03 9.03 0 0 1 50.18 61.418C48.464 63.071 46.003 64.095 43.511 64.095A9.05 9.05 0 0 1 37.172 61.496C35.511 63.163 33.284 64.095 30.865 64.095A9.04 9.04 0 0 1 24.824 61.772C21.699 77.958 34.157 92.332 50.001 92.332 65.818 92.332 78.261 78.005 75.191 61.852A9.04 9.04 0 0 1 69.231 64.095"></path><path fill="black" d="M56.58 61.556C58.691 61.556 60.677 60.395 61.893 58.668 62.133 58.33 62.52 58 62.933 58H62.937C63.351 58 63.739 58.334 63.975 58.674 65.191 60.422 67.108 61.49 69.232 61.49 71.298 61.49 73.235 60.53 74.457 58.871A30 30 0 0 0 72.69 54.399C63.127 34.916 60.078 29.174 50.001 7.654 40.756 28.36 36.872 34.93 27.312 54.414A30 30 0 0 0 25.572 58.817 6.5 6.5 0 0 0 30.866 61.554C32.988 61.554 34.904 60.551 36.121 58.803 36.358 58.462 36.72 58.232 37.164 58.258 37.576 58.258 37.963 58.459 38.201 58.797A6.51 6.51 0 0 0 43.512 61.555C45.728 61.555 47.994 60.431 49.152 58.758 49.169 58.734 49.19 58.714 49.209 58.692 49.238 58.657 49.265 58.619 49.299 58.588 49.336 58.55 49.375 58.519 49.416 58.486 49.435 58.471 49.452 58.453 49.473 58.437L49.49 58.429C49.534 58.398 49.583 58.374 49.631 58.349 49.66 58.335 49.686 58.318 49.714 58.307 49.756 58.289 49.8 58.279 49.843 58.267 49.879 58.256 49.915 58.242 49.951 58.235 49.993 58.227 50.034 58.226 50.076 58.222 50.116 58.218 50.154 58.212 50.192 58.212A1 1 0 0 1 50.326 58.225C50.362 58.227 50.399 58.228 50.434 58.235A1 1 0 0 1 50.559 58.271C50.596 58.282 50.634 58.291 50.671 58.305 50.706 58.318 50.739 58.339 50.774 58.358A1 1 0 0 1 50.896 58.424L50.918 58.437C50.944 58.455 50.965 58.479 50.99 58.498 51.024 58.526 51.057 58.552 51.089 58.583 51.125 58.618 51.155 58.659 51.187 58.696 51.204 58.718 51.223 58.736 51.238 58.758A6.5 6.5 0 0 0 56.58 61.556"></path></g></svg></g></svg></g></svg></g></svg></g><g></g></svg></g><defs><mask></mask></defs></svg><rect width="386.01872520996676" height="247.2" fill="black" stroke="none" visibility="hidden"></rect></g></mask><linearGradient x1="0.054" x2="0.941" y1="0.5" y2="0.5" id="f3d16370-4171-4315-b3bb-a4eecd1e57e9"><stop stop-color="#0f3054" offset="0"></stop><stop stop-color="#3b8dcb" offset="0.498"></stop><stop stop-color="#0f3054" offset="1"></stop></linearGradient><rect width="386.0187252099668" height="247.2" fill="url(#f3d16370-4171-4315-b3bb-a4eecd1e57e9)" mask="url(#54b26dba-7b56-41ab-ba3b-6066a0df03a1)" data-fill-palette-color="accent"></rect></svg><rect width="386.01872520996676" height="247.2" fill="none" stroke="none" visibility="hidden"></rect></g></svg></g></svg>